# xmcd CD database file
#
# Track frame offsets:
#	150
#	30315
#	50007
#	68455
#	87360
#	104840
#	125155
#	147205
#	171432
#	192802
#
# Disc length: 2799 seconds
#
# Revision: 0
# Processed by: cddbd v1.4PL0 Copyright (c) Steve Scherf et al.
# Submitted via: CDex 1.50Beta7
#
DISCID=8e0aed0a
DTITLE=Little Milton - Reality
DYEAR=1991
DGENRE=Blues
TTITLE0=A Right to Sing the Blues
TTITLE1=That's the Way I Feel About It
TTITLE2=I've Got to Remember
TTITLE3=I Want My Baby Back
TTITLE4=Walkin' on Thin Ice
TTITLE5=I'm Jealous of Her Husband
TTITLE6=Angel
TTITLE7=I'm Gonna Give It Up
TTITLE8=You Better Change Your Ways
TTITLE9=You Left a Goldmine for a Golddigger
EXTD=YEAR: 1991
EXTT0=
EXTT1=
EXTT2=
EXTT3=
EXTT4=
EXTT5=
EXTT6=
EXTT7=
EXTT8=
EXTT9=
PLAYORDER=
